<?xml version="1.0" encoding="UTF-8" standalone="no"?>
<svg
   viewBox="0 0 640 640"
   version="1.1"
   id="svg1"
   sodipodi:docname="facebook-brands-solid-full.svg"
   inkscape:version="1.3.2 (091e20e, 2023-11-25, custom)"
   xmlns:inkscape="http://www.inkscape.org/namespaces/inkscape"
   xmlns:sodipodi="http://sodipodi.sourceforge.net/DTD/sodipodi-0.dtd"
   xmlns="http://www.w3.org/2000/svg"
   xmlns:svg="http://www.w3.org/2000/svg">
  <defs
     id="defs1" />
  <sodipodi:namedview
     id="namedview1"
     pagecolor="#ffffff"
     bordercolor="#666666"
     borderopacity="1.0"
     inkscape:showpageshadow="2"
     inkscape:pageopacity="0.0"
     inkscape:pagecheckerboard="0"
     inkscape:deskcolor="#d1d1d1"
     inkscape:zoom="1.8328125"
     inkscape:cx="319.7272"
     inkscape:cy="320"
     inkscape:window-width="3440"
     inkscape:window-height="1369"
     inkscape:window-x="1912"
     inkscape:window-y="-8"
     inkscape:window-maximized="1"
     inkscape:current-layer="svg1" />
  <!--!Font Awesome Free 7.0.1 by @fontawesome - https://fontawesome.com License - https://fontawesome.com/license/free Copyright 2025 Fonticons, Inc.-->
  <path
     d="M576 320C576 178.6 461.4 64 320 64C178.6 64 64 178.6 64 320C64 440 146.7 540.8 258.2 568.5L258.2 398.2L205.4 398.2L205.4 320L258.2 320L258.2 286.3C258.2 199.2 297.6 158.8 383.2 158.8C399.4 158.8 427.4 162 438.9 165.2L438.9 236C432.9 235.4 422.4 235 409.3 235C367.3 235 351.1 250.9 351.1 292.2L351.1 320L434.7 320L420.3 398.2L351 398.2L351 574.1C477.8 558.8 576 450.9 576 320z"
     id="path1"
     style="fill:#ffffff" />
</svg>
