<svg version="1.2" xmlns="http://www.w3.org/2000/svg" viewBox="0 0 1036 194" width="1036" height="194"><style>.a{fill:#152b53}.b{fill:none;stroke:#152b53;stroke-width:.4}.c{fill:#3e7cbf}.d{fill:#c0d732}</style><path fill-rule="evenodd" class="a" d="m641 80.6c0.2 0.7 0.5 1.8 1.6 2.6 1.4 1.1 3.1 1.6 5.1 1.6 3.7 0 6.5-1.9 6.5-5.2 0-3.5-2.9-4.3-4.3-4.6l-2.7-0.7c-0.9-0.3-2.3-0.7-2.3-2 0-0.8 0.5-2 2.8-2 2.3 0 2.8 1.3 3 1.8l2.8-0.7c-0.1-0.5-0.4-1.3-1.3-2.1-1.3-1-2.9-1.4-4.6-1.4-3.3 0-5.8 1.8-5.8 4.9 0 2.1 1.2 3.7 3.6 4.4l3.7 0.9c0.7 0.2 2 0.6 2 2.1 0 0.8-0.6 2.2-3.3 2.2-0.5 0-1.2 0-2.1-0.3-1.4-0.5-1.7-1.5-1.9-2.1zm21.5 1.8c-0.3 0-0.4 0-0.6 0-1.5 0-2-0.3-2-2v-5.9h2.4v-2.1h-2.4v-3.4l-2.3 0.2-0.2 3.2h-1.7v2.1h1.5v6.3c0 1.4 0.1 2.2 0.8 3 0.6 0.7 1.7 1 2.6 1 0.5 0 1.3-0.1 1.9-0.3zm12.6-5.8c0-1.5 0-2.5-1.2-3.5-0.9-0.8-2.4-0.9-3.7-0.9-2.5 0-5.1 0.7-5.5 3.5l2.3 0.3c0.1-0.5 0.4-1.9 2.8-1.9 1.3 0 2.6 0.3 2.6 1.9v0.9c-2.6 0-8.1 0.1-8.1 4.2 0 2 1.4 3.7 4 3.7 2.9 0 3.8-1.8 4.1-2.7 0.1 1 0.2 1.5 0.5 2.5h2.6c-0.1-0.4-0.4-1.3-0.4-2.5zm-2.7 2.9c0 0.9-0.5 3.2-3.2 3.2-1.9 0-2.1-1.4-2.1-1.8 0-1.6 1.5-2 2-2.1 0.5-0.2 1.6-0.4 3.3-0.4zm11.9 2.9c-0.3 0-0.5 0-0.7 0-1.4 0-2-0.3-2-2v-5.9h2.4v-2.1h-2.4v-3.4l-2.2 0.2-0.3 3.2h-1.7v2.1h1.5v6.3c0 1.4 0.1 2.2 0.9 3 0.5 0.7 1.6 1 2.6 1 0.5 0 1.3-0.1 1.9-0.3zm5.3 2.2v-12.2h-2.8v12.2zm0-13.6v-2.9h-2.7v2.9zm2 10.8c0.5 1.8 2.3 3 5.2 3 1.7 0 5.3-0.6 5.3-3.9 0-1.9-1.1-3.2-3-3.5l-2.7-0.6c-0.9-0.2-1.7-0.6-1.7-1.3 0-0.8 0.7-1.4 2.2-1.4 1.7 0 2 1 2.2 1.4l2.4-0.5c-0.8-2.5-3.3-2.8-4.7-2.8-4 0-4.7 2.5-4.7 3.8 0 2.9 2.6 3.4 3.7 3.6l2.2 0.5c0.5 0.1 1.4 0.4 1.4 1.2 0 1.4-2 1.5-2.6 1.5-1.9 0-2.3-0.9-2.6-1.5zm18.6 0.6c-0.3 0.1-0.5 0.1-0.7 0.1-1.4 0-2-0.3-2-2v-5.9h2.5v-2.2h-2.5v-3.3l-2.2 0.2-0.3 3.1h-1.6v2.2h1.5v6.3c0 1.3 0.1 2.1 0.8 3 0.5 0.6 1.7 0.9 2.6 0.9 0.5 0 1.3-0.1 1.9-0.2zm5.3 2.1v-12.1h-2.7v12.1zm0-13.6v-2.8h-2.8v2.8zm10.6 9.2c-0.4 1.3-1.1 2.3-2.4 2.3-2.5 0-2.5-3.3-2.5-3.8 0-0.6 0.1-1.5 0.3-2.3 0.3-0.7 0.8-1.9 2.3-1.9 1.2 0 2 0.6 2.3 2.2l2.3-0.3c-0.1-0.9-0.7-4.2-4.7-4.2-3.6 0-5.4 3-5.4 6.3 0 2.8 1.3 6.4 5.2 6.4 3.9 0 4.7-3.4 4.9-4.5zm3.3 1.7c0.5 1.8 2.3 3 5.1 3 1.7 0 5.3-0.6 5.3-3.9 0-1.9-1-3.2-3-3.5l-2.6-0.6c-1-0.2-1.8-0.6-1.8-1.3 0-0.8 0.7-1.4 2.2-1.4 1.7 0 2.1 1 2.2 1.4l2.4-0.5c-0.7-2.5-3.3-2.8-4.7-2.8-3.9 0-4.6 2.5-4.6 3.8 0 2.9 2.5 3.4 3.7 3.6l2.2 0.5c0.5 0.1 1.3 0.4 1.3 1.2 0 1.4-2 1.5-2.6 1.5-1.9 0-2.3-0.9-2.5-1.5zm30.3-5.2c0-1.5 0-2.4-1.2-3.5-0.9-0.7-2.4-0.9-3.7-0.9-2.5 0-5.1 0.7-5.5 3.5l2.3 0.3c0.1-0.5 0.4-1.9 2.8-1.9 1.3 0 2.6 0.3 2.6 1.9v0.9c-2.6 0-8.1 0.1-8.1 4.2 0 2 1.4 3.7 4 3.7 2.9 0 3.8-1.8 4.1-2.7 0.1 1 0.2 1.5 0.5 2.5h2.6c-0.1-0.4-0.4-1.3-0.4-2.5zm-2.7 2.9c0 0.9-0.5 3.2-3.1 3.2-2 0-2.2-1.4-2.2-1.8 0-1.6 1.5-2 2-2.1 0.6-0.2 1.6-0.4 3.3-0.4zm6.2 5h2.8v-5.7c0-4.1 2.1-4.3 2.7-4.3 0.4 0 1.8 0.1 1.8 2.9v7.1h2.8v-7.2c0-1.6 0.1-5.2-3.9-5.2-2.3 0-3.2 2.1-3.7 3.1v-2.8h-2.5zm23.6 0v-16.5h-2.7v6c-0.8-1.8-2.1-2.2-3.3-2.2-3.7 0-4.8 4.1-4.8 6.5 0 1.3 0.4 6.4 4.7 6.4 2.4 0 3.2-1.8 3.5-2.6v2.4zm-2.7-5.1c0 1.9-1.3 3.1-2.6 3.1-2.5 0-2.5-3.2-2.5-4.1 0-1 0.1-4.2 2.6-4.2 0.6 0 1.4 0.3 1.9 0.9 0.4 0.7 0.6 1.2 0.6 2.2zm26.6 5.1l-2.8-7.2c0.8-0.4 2.9-1.3 2.9-4.4 0-1.7-0.6-2.8-1.5-3.5-1-0.9-2.2-1.3-4.3-1.3h-7.1v16.4h3v-6.7h4.1l2.6 6.7zm-9.8-14.1h3.9c2.1 0 2.9 1.2 2.9 2.5 0 2-1.7 2.5-3.1 2.5h-3.7zm20.7 10.2c-0.3 0.7-0.8 2-2.8 2-1 0-1.7-0.4-2.2-1.1-0.7-1-0.7-2-0.7-2.8h8.3c0.1-3.5-1.5-6.6-5.4-6.6-3.6 0-5.7 2.8-5.7 6.3 0 3.1 1.5 6.3 5.6 6.3 2.3 0 4.5-1.1 5.3-3.7zm-5.6-3.7c0-0.6 0.1-1.2 0.5-1.8q0.8-1.2 2.2-1.2c1 0 1.7 0.5 2.2 1.1 0.5 0.7 0.5 1.3 0.6 1.9zm9.5 4.7c0.5 1.8 2.3 3.1 5.2 3.1 1.7 0 5.3-0.6 5.3-4 0-1.9-1.1-3.1-3-3.5l-2.7-0.5c-0.9-0.2-1.7-0.6-1.7-1.3 0-0.9 0.7-1.4 2.2-1.4 1.7 0 2 0.9 2.2 1.3l2.4-0.5c-0.8-2.5-3.3-2.8-4.7-2.8-3.9 0-4.7 2.6-4.7 3.9 0 2.8 2.6 3.4 3.7 3.6l2.3 0.4c0.4 0.1 1.3 0.5 1.3 1.2 0 1.5-2 1.5-2.6 1.5-1.9 0-2.3-0.9-2.6-1.5zm20.7-1c-0.3 0.6-0.8 1.9-2.8 1.9-0.9 0-1.7-0.3-2.2-1.1-0.7-0.9-0.7-1.9-0.7-2.7h8.4c0-3.5-1.6-6.7-5.5-6.7-3.6 0-5.7 2.8-5.7 6.4 0 3 1.6 6.3 5.6 6.3 2.4 0 4.5-1.1 5.3-3.8zm-5.6-3.6c0.1-0.7 0.1-1.2 0.6-1.8q0.8-1.2 2.2-1.2c0.9 0 1.6 0.4 2.1 1.1 0.5 0.7 0.6 1.2 0.6 1.9zm21.1-0.5c0-1.5 0-2.5-1.3-3.5-0.8-0.7-2.3-0.9-3.7-0.9-2.4 0-5 0.7-5.4 3.5l2.3 0.3c0.1-0.5 0.4-1.9 2.8-1.9 1.3 0 2.6 0.3 2.6 1.9v0.9c-2.6 0-8.1 0.1-8.1 4.2 0 2 1.4 3.7 4 3.7 2.9 0 3.7-1.8 4.1-2.7 0.1 1 0.1 1.5 0.5 2.5h2.6c-0.2-0.4-0.4-1.3-0.4-2.5zm-2.7 2.9c0 0.9-0.5 3.2-3.2 3.2-1.9 0-2.1-1.4-2.1-1.8 0-1.6 1.4-2 2-2.1 0.5-0.2 1.6-0.4 3.3-0.4zm6.2 5h2.8v-4.9c0-1.9 0.4-3.1 0.9-3.6 0.9-1 1.9-1 2.5-1v-3c-2.6-0.1-3.4 2.4-3.7 3.3v-2.9h-2.5zm15.4-4.5c-0.3 1.4-1 2.3-2.4 2.3-2.4 0-2.4-3.3-2.4-3.8 0-0.5 0-1.5 0.3-2.3 0.2-0.6 0.7-1.9 2.3-1.9 1.2 0 2 0.7 2.2 2.3l2.4-0.3c-0.2-1-0.8-4.2-4.7-4.2-3.6 0-5.5 3-5.5 6.3 0 2.8 1.4 6.3 5.2 6.3 4 0 4.8-3.3 5-4.4zm4.7 4.4h2.8v-5.8c0-1.4 0.1-2.2 0.5-3.1 0.3-0.8 1.3-1.3 2.2-1.3 1.9 0 1.9 1.8 1.9 2.8v7.4h2.7v-7.8c0-3.4-1.1-4.8-3.8-4.8-2.4 0-3.2 1.9-3.5 2.6v-6.4h-2.8zm28.6-16.4h-3.7l-5.4 16.4h2.5l1.3-3.9h6.3l1.3 3.9h3.2zm-4.6 10.1l2.4-7.3 2.4 7.3zm23.2-8.1h-0.8c-0.8 0-1.4 0.1-2 0.5-0.5 0.3-0.9 0.9-1.1 1.8-0.7-0.1-1.3-0.3-2.4-0.3-4.2 0-5 2.4-5 3.7 0 1.7 1.1 2.4 1.7 2.8-0.6 0.3-1.9 1-1.9 2.5 0 0.9 0.4 1.4 1.1 2-0.9 0.5-1.8 1-1.8 2.5 0 2.6 2.7 3.3 5.9 3.3 5.2 0 6.3-2.4 6.3-4 0-1.6-1.1-3.3-4.1-3.3h-3.1c-1.6 0-2-0.8-2-1.2 0-0.8 0.5-1 0.9-1.2 0.8 0.2 1.4 0.3 2.2 0.3 3 0 5-1.5 5-3.7 0-1.3-0.8-2.1-1.5-2.7 0.4-0.7 0.9-0.9 1.8-0.9h0.8zm-3.9 5.7c0 0.6-0.1 1.2-0.8 1.7-0.3 0.2-0.9 0.4-1.5 0.4-1.5 0-2.2-1-2.2-2 0-0.9 0.5-2 2.3-2 1.7 0 2.2 1.1 2.2 1.9zm-5.9 9.1c0-0.4 0.2-0.6 0.6-1 0.8 0.2 2 0.3 3 0.3h1.9c0.8 0 1.8 0.3 1.8 1.2 0 1.4-2 1.6-3.2 1.6-0.6 0-1.4 0-2.3-0.3-1-0.2-1.8-1-1.8-1.8zm19.5-4.2c-0.3 0.6-0.8 1.9-2.8 1.9-0.9 0-1.7-0.3-2.2-1.1-0.7-0.9-0.7-1.9-0.7-2.7h8.4c0-3.5-1.6-6.7-5.5-6.7-3.6 0-5.7 2.8-5.7 6.4 0 3 1.6 6.3 5.6 6.3 2.4 0 4.5-1.1 5.3-3.8zm-5.6-3.6c0.1-0.7 0.1-1.2 0.6-1.8q0.8-1.2 2.2-1.2c0.9 0 1.6 0.4 2.1 1.1 0.5 0.7 0.6 1.2 0.6 1.9zm11.1 7.5h2.7v-5.7c0-4.2 2.1-4.3 2.7-4.3 0.5 0 1.9 0 1.9 2.8v7.2h2.7v-7.2c0-1.6 0.1-5.2-3.9-5.2-2.2 0-3.2 2-3.6 3v-2.8h-2.5zm20.6-4.4c-0.4 1.3-1.1 2.3-2.4 2.3-2.5 0-2.5-3.4-2.5-3.8 0-0.6 0-1.5 0.3-2.3 0.2-0.7 0.8-1.9 2.3-1.9 1.2 0 2 0.6 2.3 2.2l2.3-0.3c-0.2-1-0.7-4.2-4.7-4.2-3.6 0-5.4 3-5.4 6.3 0 2.8 1.3 6.4 5.1 6.4 4 0 4.8-3.4 5-4.5zm13.8-7.7h-2.2l-2.5 8.1-3-8.1h-2.8l4.1 11.4c0.1 0.2 0.3 0.7 0.3 0.8 0 0.3-0.4 1.4-0.8 1.7-0.5 0.5-1.1 0.4-2.7 0.4v2.2q1.3 0.1 1.6 0.1c1.1 0 2.5-0.3 3.3-2.7z"/><path fill-rule="evenodd" class="a" d="m655.1 60.1h-2.7l-6.5-10.5c-0.1-0.3-0.7-1.6-0.9-1.9v12.4h-2.3v-16.5h3.2l5.8 9.7c0.1 0.1 0.5 0.9 1 1.9v-11.6h2.4zm8.2 0.3c-4.1 0-5.5-3.6-5.5-6.4 0-3.3 2-6.3 5.7-6.3 3.6 0 5.6 3 5.6 6.3 0 4.1-2.7 6.4-5.8 6.4zm0.1-10.4c-2.2 0-2.7 2.1-2.7 4 0 0.7 0 4.1 2.7 4.1 2.5 0 2.8-2.9 2.8-4.1 0-2.1-0.7-4-2.8-4zm8.4-2h2.5v2.9c0.3-0.9 1.1-3.4 3.7-3.3v3c-0.6 0-1.6 0-2.5 1-0.5 0.5-0.9 1.7-0.9 3.6v4.9h-2.8zm15.3 12.2c-0.6 0.1-1.4 0.2-1.9 0.2-0.9 0-2.1-0.3-2.6-0.9-0.7-0.9-0.8-1.7-0.8-3v-6.3h-1.5v-2.2h1.6l0.3-3.1 2.2-0.2v3.3h2.5v2.2h-2.5v5.9c0 1.7 0.6 2 2 2 0.2 0 0.4 0 0.7-0.1zm2.6-16.4h2.7v6.4c0.3-0.7 1.1-2.6 3.6-2.6 2.6 0 3.7 1.4 3.7 4.8v7.8h-2.7v-7.4c0-1 0-2.8-1.9-2.8-0.9 0-1.9 0.5-2.2 1.3-0.4 0.9-0.5 1.7-0.5 3.1v5.8h-2.7zm23.7 13c-0.8 2.6-2.9 3.7-5.3 3.7-4.1 0-5.6-3.2-5.6-6.3 0-3.5 2.1-6.3 5.7-6.3 3.9 0 5.5 3.1 5.5 6.6h-8.4c0 0.8 0 1.8 0.7 2.8 0.5 0.7 1.2 1.1 2.2 1.1 2 0 2.5-1.3 2.8-2zm-2.7-4c0-0.6 0-1.2-0.6-1.9-0.4-0.6-1.1-1-2.1-1q-1.4 0-2.2 1.1c-0.4 0.7-0.5 1.2-0.5 1.8zm5.6-4.6h2.4v2.9c0.3-0.9 1.2-3.4 3.8-3.3v3c-0.7 0-1.7 0-2.6 1-0.4 0.5-0.9 1.7-0.9 3.6v4.9h-2.7zm8.8 0h2.4v2.8c0.5-1 1.5-3 3.7-3 4 0 3.9 3.6 3.9 5.2v7.2h-2.7v-7.2c0-2.8-1.4-2.8-1.9-2.8-0.6 0-2.7 0.1-2.7 4.3v5.7h-2.7zm21.1 12.1v-16.4h2.9v16.4zm6.7-12.1h2.5v2.9c0.3-0.9 1.1-3.4 3.7-3.3v3c-0.6 0-1.6 0-2.5 1-0.5 0.5-0.9 1.7-0.9 3.6v4.9h-2.8zm18.6 8.7c-0.9 2.6-3 3.7-5.4 3.7-4 0-5.6-3.2-5.6-6.3 0-3.5 2.2-6.3 5.8-6.3 3.9 0 5.5 3.1 5.4 6.6h-8.3c0 0.9-0.1 1.8 0.6 2.8 0.6 0.7 1.3 1.1 2.3 1.1 2 0 2.5-1.3 2.7-2zm-2.6-4c0-0.6-0.1-1.2-0.6-1.9-0.5-0.6-1.2-1-2.1-1q-1.4 0-2.2 1.1c-0.4 0.7-0.5 1.2-0.6 1.8zm5.7 7.5v-16.4h2.7v16.4zm16.3-2.4c0 1.1 0.2 2 0.4 2.4h-2.6c-0.4-1-0.4-1.4-0.5-2.4-0.4 0.8-1.2 2.7-4.1 2.7-2.6 0-4-1.8-4-3.8 0-4.1 5.5-4.2 8.1-4.1v-0.9c0-1.6-1.3-1.9-2.6-1.9-2.4 0-2.7 1.3-2.8 1.9l-2.3-0.4c0.4-2.7 3-3.5 5.4-3.5 1.4 0 2.9 0.2 3.7 0.9 1.3 1.1 1.3 2.1 1.3 3.6zm-2.7-3.7c-1.7 0-2.8 0.2-3.3 0.4-0.6 0.1-2 0.6-2 2.1 0 0.5 0.2 1.8 2.1 1.8 2.7 0 3.2-2.2 3.2-3.2zm6.2-6h2.5v2.8c0.5-1 1.4-3 3.7-3 3.9 0 3.9 3.6 3.9 5.2v7.2h-2.8v-7.2c0-2.8-1.4-2.8-1.8-2.8-0.6 0-2.7 0.1-2.7 4.3v5.7h-2.8zm21 12.1v-2.4c-0.3 0.8-1.1 2.7-3.6 2.7-4.2 0-4.6-5.2-4.6-6.5 0-2.4 1.1-6.4 4.8-6.4 1.2 0 2.4 0.4 3.2 2.1v-5.9h2.8v16.4zm-0.2-7.1c0-1.1-0.2-1.6-0.6-2.3-0.5-0.6-1.3-0.9-1.9-0.9-2.5 0-2.6 3.2-2.6 4.3 0 0.8 0 4 2.5 4 1.3 0 2.6-1.1 2.6-3.1z"/><path fill-rule="evenodd" class="a" d="m652.5 136.5h-2.7v5.9c0 1.1-0.1 1.8-0.4 2.5-0.4 1-1.5 1.7-2.4 1.7-1.3 0-1.7-1.1-1.7-2.4v-7.7h-2.8v8.5c0 1.1 0.1 1.6 0.6 2.4 0.7 1.1 1.9 1.5 3 1.5 1.3 0 2.1-0.5 2.6-0.9 0.8-0.6 1-1.3 1.2-1.9v2.6h2.6zm3.5 12.1h2.9v-5.9c0-3 1.4-4 2.8-4 1.7 0 2 1.4 2 2.3v7.6h2.9v-6.3c0-2.7 1.3-3.6 2.6-3.6 1.8 0 2.1 1.2 2.1 2.8v7.1h2.9v-7.9c0-2.6-1.2-4.5-3.9-4.5-2.1 0-3.4 1.5-4 2.9-0.3-0.8-0.9-2.9-3.5-2.9-2.7 0-3.5 1.8-4.1 2.9v-2.6h-2.7zm27.6-4c0.2 0.8 0.5 1.8 1.6 2.7 1.4 1 3.1 1.5 5.1 1.5 3.7 0 6.5-1.9 6.5-5.1 0-3.6-2.8-4.4-4.2-4.7l-2.8-0.7c-0.9-0.2-2.3-0.7-2.3-2 0-0.8 0.5-2 2.8-2 2.4 0 2.9 1.3 3 1.8l2.9-0.7c-0.2-0.5-0.4-1.3-1.4-2.1-1.3-1-2.9-1.4-4.5-1.4-3.3 0-5.8 1.8-5.8 4.9 0 2.1 1.1 3.8 3.5 4.4l3.7 0.9c0.7 0.2 2 0.6 2 2.2 0 0.7-0.5 2.1-3.3 2.1-0.5 0-1.2 0-2-0.3-1.5-0.5-1.8-1.5-2-2.1zm21.6 1.8c-0.3 0-0.5 0-0.7 0-1.4 0-2-0.3-2-1.9v-6h2.4v-2.1h-2.4v-3.4l-2.3 0.2-0.2 3.2h-1.7v2.1h1.5v6.3c0 1.4 0.1 2.2 0.9 3 0.5 0.7 1.6 1 2.5 1 0.6 0 1.3-0.1 2-0.2zm12.5-5.8c0-1.6 0-2.5-1.2-3.6-0.9-0.7-2.4-0.9-3.7-0.9-2.5 0-5 0.7-5.5 3.5l2.3 0.3c0.1-0.5 0.4-1.9 2.9-1.9 1.2 0 2.6 0.4 2.6 1.9v0.9c-2.7 0-8.2 0.1-8.2 4.2 0 2 1.4 3.7 4 3.7 2.9 0 3.8-1.8 4.2-2.7 0 1 0.1 1.5 0.4 2.5h2.6c-0.1-0.4-0.4-1.3-0.4-2.5zm-2.6 2.9c0 0.9-0.5 3.2-3.2 3.2-2 0-2.2-1.3-2.2-1.8 0-1.5 1.5-2 2-2.1 0.6-0.2 1.6-0.4 3.4-0.4zm8.9 5.1v-12.2h-2.7v12.2zm0-13.6v-2.9h-2.8v2.9zm9.2 11.4c-0.3 0-0.4 0-0.7 0-1.4 0-2-0.3-2-1.9v-6h2.5v-2.1h-2.5v-3.3l-2.2 0.1-0.2 3.2h-1.7v2.1h1.5v6.3c0 1.4 0.1 2.2 0.8 3 0.6 0.7 1.7 1 2.6 1 0.5 0 1.3-0.1 1.9-0.2zm5.3 2.1v-12.2h-2.7v12.2zm0-13.6v-2.8h-2.8v2.8zm2.1 10.8c0.5 1.8 2.3 3 5.2 3 1.6 0 5.3-0.5 5.3-3.9 0-1.9-1.1-3.1-3.1-3.5l-2.6-0.6c-1-0.2-1.8-0.5-1.8-1.3 0-0.8 0.7-1.4 2.2-1.4 1.8 0 2.1 1 2.2 1.4l2.4-0.5c-0.7-2.5-3.2-2.8-4.7-2.8-3.9 0-4.6 2.6-4.6 3.9 0 2.8 2.5 3.3 3.7 3.5l2.2 0.5c0.5 0.1 1.3 0.4 1.3 1.2 0 1.4-2 1.5-2.5 1.5-2 0-2.4-0.9-2.6-1.5zm18.6 0.7c-0.3 0-0.5 0-0.7 0-1.4 0-2-0.3-2-2v-5.9h2.4v-2.1h-2.4v-3.4l-2.3 0.2-0.2 3.2h-1.7v2.1h1.5v6.3c0 1.4 0.1 2.2 0.8 3 0.6 0.6 1.7 0.9 2.6 0.9 0.5 0 1.3-0.1 2-0.2zm5.2 2.1v-12.1h-2.7v12.1zm0-13.5v-2.9h-2.7v2.9zm10.5 9.1c-0.3 1.4-1.1 2.3-2.4 2.3-2.5 0-2.5-3.3-2.5-3.8 0-0.6 0.1-1.5 0.4-2.3 0.2-0.7 0.7-1.9 2.3-1.9 1.1 0 2 0.7 2.2 2.3l2.4-0.4c-0.2-0.9-0.8-4.2-4.8-4.2-3.5 0-5.4 3-5.4 6.4 0 2.7 1.3 6.3 5.2 6.3 3.9 0 4.7-3.4 5-4.5zm7.4 4.5v-12.2h-2.7v12.2zm1.4-17.9l-4.7 2.6 0.5 1.3 5-2.1zm19.6 10c0-1.6 0-2.5-1.3-3.6-0.8-0.7-2.3-0.9-3.6-0.9-2.5 0-5.1 0.7-5.5 3.5l2.3 0.3c0.1-0.5 0.4-1.9 2.8-1.9 1.3 0 2.6 0.4 2.6 1.9v0.9c-2.6 0-8.1 0.1-8.1 4.2 0 2 1.4 3.7 4 3.7 2.9 0 3.8-1.8 4.1-2.7 0.1 1 0.1 1.5 0.5 2.5h2.6c-0.1-0.4-0.4-1.3-0.4-2.5zm-2.7 2.9c0 0.9-0.5 3.2-3.2 3.2-1.9 0-2.1-1.3-2.1-1.8 0-1.5 1.4-2 2-2.1 0.5-0.2 1.6-0.4 3.3-0.4zm17.3-9.4h-0.8c-0.8 0-1.5 0.1-2 0.5-0.6 0.3-0.9 0.9-1.1 1.8-0.7-0.1-1.3-0.2-2.4-0.2-4.3 0-5 2.4-5 3.6 0 1.7 1 2.4 1.7 2.8-0.7 0.4-1.9 1-1.9 2.6 0 0.8 0.4 1.3 1.1 1.9-0.9 0.5-1.8 1-1.8 2.5 0 2.6 2.7 3.3 5.9 3.3 5.2 0 6.3-2.4 6.3-4 0-1.6-1.2-3.3-4.1-3.3h-3.1c-1.6 0-2-0.8-2-1.2 0-0.8 0.5-1 0.8-1.2 0.9 0.2 1.4 0.3 2.3 0.3 2.9 0 4.9-1.5 4.9-3.7 0-1.3-0.7-2.1-1.4-2.6 0.4-0.8 0.9-1 1.8-1h0.8zm-4 5.7c0 0.6 0 1.2-0.7 1.7-0.4 0.2-0.9 0.4-1.5 0.4-1.5 0-2.3-0.9-2.3-2 0-0.8 0.6-2 2.3-2 1.8 0 2.2 1.2 2.2 1.9zm-5.8 9.1c0-0.3 0.2-0.6 0.6-1 0.8 0.2 2 0.3 2.9 0.3h2c0.8 0 1.8 0.3 1.8 1.2 0 1.4-2 1.6-3.2 1.6-0.6 0-1.4 0-2.3-0.2-1-0.3-1.8-1.1-1.8-1.9zm21.7-12.5h-2.7v5.8c0 1.2-0.1 1.8-0.3 2.5-0.4 1.1-1.6 1.7-2.4 1.7-1.3 0-1.7-1-1.7-2.3v-7.7h-2.9v8.5c0 1.1 0.2 1.6 0.7 2.4 0.7 1.1 1.8 1.5 2.9 1.5 1.4 0 2.2-0.6 2.6-0.9 0.8-0.7 1-1.3 1.3-2v2.6h2.5zm2.1 9.4c0.5 1.8 2.3 3 5.2 3 1.6 0 5.3-0.6 5.3-3.9 0-1.9-1.1-3.1-3.1-3.5l-2.6-0.6c-1-0.2-1.8-0.5-1.8-1.3 0-0.8 0.7-1.4 2.2-1.4 1.8 0 2.1 1 2.2 1.4l2.4-0.5c-0.7-2.5-3.2-2.8-4.7-2.8-3.9 0-4.6 2.6-4.6 3.9 0 2.8 2.5 3.3 3.7 3.5l2.2 0.5c0.5 0.1 1.3 0.4 1.3 1.2 0 1.4-2 1.5-2.5 1.5-2 0-2.4-0.9-2.6-1.5zm26.2 2.8v-13.9h4.4v-2.5h-12v2.5h4.4v13.9zm14.8-7.9c0-1.6 0-2.5-1.2-3.6-0.9-0.7-2.4-0.9-3.7-0.9-2.5 0-5.1 0.7-5.5 3.5l2.3 0.3c0.1-0.5 0.4-1.9 2.9-1.9 1.2 0 2.5 0.4 2.5 1.9v0.9c-2.6 0-8.1 0.1-8.1 4.2 0 2 1.4 3.7 4 3.7 2.9 0 3.8-1.8 4.1-2.7 0.1 1 0.2 1.5 0.5 2.5h2.6c-0.1-0.4-0.4-1.3-0.4-2.5zm-2.7 2.9c0 1-0.4 3.2-3.1 3.2-2 0-2.2-1.3-2.2-1.8 0-1.5 1.5-2 2-2.1 0.6-0.2 1.6-0.4 3.3-0.4zm9 5.1v-12.2h-2.7v12.2zm0-13.6v-2.9h-2.8v2.9zm14.7-0.9h-0.9c-0.7 0-1.4 0.1-2 0.5-0.5 0.4-0.9 0.9-1.1 1.8-0.7-0.1-1.3-0.2-2.3-0.2-4.3 0-5 2.4-5 3.6 0 1.7 1 2.4 1.7 2.8-0.7 0.4-2 1-2 2.6 0 0.8 0.5 1.3 1.1 2-0.8 0.4-1.7 0.9-1.7 2.4 0 2.6 2.7 3.3 5.9 3.3 5.1 0 6.3-2.4 6.3-4 0-1.6-1.2-3.3-4.2-3.3h-3.1c-1.6 0-2-0.8-2-1.2 0-0.7 0.5-1 0.9-1.2 0.8 0.2 1.4 0.3 2.3 0.3 2.9 0 4.9-1.5 4.9-3.7 0-1.3-0.8-2.1-1.4-2.6 0.3-0.7 0.8-1 1.7-1h0.9zm-4 5.7c0 0.6 0 1.2-0.7 1.7-0.4 0.2-1 0.4-1.6 0.4-1.5 0-2.2-0.9-2.2-2 0-0.8 0.5-2 2.3-2 1.7 0 2.2 1.2 2.2 1.9zm-5.9 9.1c0-0.3 0.2-0.6 0.6-1 0.8 0.3 2.1 0.3 3 0.3h1.9c0.9 0 1.8 0.4 1.8 1.2 0 1.4-1.9 1.6-3.1 1.6-0.7 0-1.5 0-2.3-0.2-1.1-0.3-1.9-1.1-1.9-1.9zm11.8-0.3h2.7v-5.9c0-1.4 0.2-2.2 0.5-3.1 0.4-0.7 1.3-1.3 2.3-1.3 1.8 0 1.8 1.8 1.8 2.9v7.4h2.7v-7.9c0-3.4-1.1-4.8-3.7-4.8-2.5 0-3.3 1.9-3.6 2.6v-6.4h-2.7zm23.6 0v-16.4h-2.8v5.9c-0.8-1.7-2-2.1-3.2-2.1-3.8 0-4.8 4-4.8 6.4 0 1.3 0.4 6.5 4.6 6.5 2.5 0 3.3-1.9 3.6-2.7v2.4zm-2.7-5.1c0 2-1.4 3.1-2.6 3.1-2.5 0-2.5-3.2-2.5-4.1 0-1 0.1-4.2 2.5-4.2 0.7 0 1.5 0.3 1.9 0.9 0.5 0.7 0.7 1.2 0.7 2.2zm14 1.3c-0.3 0.6-0.8 1.9-2.8 1.9-1 0-1.7-0.3-2.2-1.1-0.7-0.9-0.7-1.9-0.7-2.7h8.4c0-3.5-1.6-6.7-5.5-6.7-3.6 0-5.7 2.8-5.7 6.4 0 3.1 1.5 6.3 5.6 6.3 2.4 0 4.5-1.1 5.3-3.8zm-5.6-3.6c0.1-0.7 0.1-1.2 0.6-1.8q0.7-1.2 2.1-1.2c1 0 1.7 0.4 2.2 1.1 0.5 0.7 0.5 1.3 0.6 1.9z"/><path fill-rule="evenodd" class="a" d="m655.1 115.8h-6.1v2.4h3.4c0 2.4-1.6 3.8-3.5 3.8-3.3 0-4-3.3-4-6.2 0-2.7 0.6-3.7 1.2-4.5 0.5-0.6 1.4-1.3 2.8-1.3 2.7 0 3.3 2.3 3.5 3l2.5-0.5c-0.2-0.7-0.4-1.8-1.4-2.9-1.4-1.7-3.2-2.1-4.7-2.1-5.3 0-7 4.9-7 8.5 0 1.9 0.6 8.4 6.7 8.4 1.6 0 3.2-0.5 4.4-2.4l0.9 2.2h1.3zm3.5 8.4h2.7v-5.7c0-4.2 2.1-4.3 2.7-4.3 0.5 0 1.9 0 1.9 2.8v7.2h2.7v-7.2c0-1.6 0.1-5.2-3.8-5.2-2.3 0-3.3 2-3.7 3v-2.8h-2.5zm16.3 0v-12.1h-2.7v12.1zm1.3-17.9l-4.7 2.7 0.5 1.3 5-2.2zm12.8 11.8c0-3.3-2-6.3-5.6-6.3-3.7 0-5.7 3-5.7 6.3 0 2.8 1.4 6.4 5.5 6.4 3.1 0 5.8-2.3 5.8-6.4zm-2.9 0c0 1.3-0.3 4.1-2.8 4.1-2.7 0-2.7-3.4-2.7-4 0-1.9 0.5-4.1 2.7-4.1 2.1 0 2.8 1.9 2.8 4zm5.6 6.1h2.9v-5.9c0-3 1.4-4 2.8-4 1.7 0 1.9 1.4 1.9 2.4v7.5h2.9v-6.3c0-2.7 1.4-3.6 2.7-3.6 1.8 0 2.1 1.3 2.1 2.8v7.1h2.9v-7.8c0-2.7-1.3-4.6-3.9-4.6-2.2 0-3.4 1.6-4.1 2.9-0.2-0.8-0.8-2.9-3.5-2.9-2.6 0-3.5 1.8-4 2.9v-2.6h-2.7zm21.7 0h2.8v-5.8c0-1.5 0.1-2.3 0.5-3.2 0.3-0.7 1.3-1.3 2.2-1.3 1.8 0 1.8 1.9 1.8 2.9v7.4h2.8v-7.9c0-3.3-1.2-4.8-3.8-4.8-2.5 0-3.3 2-3.5 2.7v-6.5h-2.8zm23.7-7.9c0-1.5 0-2.5-1.3-3.6-0.8-0.7-2.4-0.8-3.7-0.8-2.5 0-5 0.7-5.5 3.4l2.3 0.4c0.2-0.6 0.5-1.9 2.9-1.9 1.2 0 2.6 0.3 2.6 1.9v0.9c-2.6-0.1-8.2 0.1-8.2 4.2 0 1.9 1.4 3.7 4.1 3.7 2.9 0 3.7-1.9 4.1-2.7 0 1 0.1 1.5 0.4 2.4h2.6c-0.1-0.4-0.3-1.3-0.3-2.4zm-2.7 2.8c0 1-0.5 3.3-3.2 3.3-2 0-2.2-1.4-2.2-1.8 0-1.6 1.5-2 2-2.2 0.6-0.1 1.6-0.4 3.4-0.4zm8.9 5.1v-12.1h-2.7v12.1zm0-13.6v-2.8h-2.7v2.8zm3.5 13.6h2.7v-4.9c0-1.9 0.5-3.1 1-3.6 0.8-1.1 1.8-1 2.5-1v-3c-2.6-0.1-3.4 2.4-3.7 3.3v-2.9h-2.5zm16.1-3.9c-0.2 0.7-0.8 2-2.7 2-1 0-1.8-0.4-2.3-1.1-0.7-1-0.6-2-0.6-2.8h8.3c0.1-3.5-1.5-6.6-5.5-6.6-3.5 0-5.7 2.7-5.7 6.3 0 3.1 1.6 6.3 5.6 6.3 2.4 0 4.5-1.1 5.4-3.8zm-5.7-3.6c0.1-0.7 0.2-1.2 0.6-1.8q0.8-1.2 2.2-1.2c0.9 0 1.6 0.4 2.1 1.1 0.5 0.7 0.6 1.3 0.6 1.9zm21.1-0.4c0-1.6 0-2.5-1.2-3.6-0.9-0.7-2.4-0.9-3.7-0.9-2.5 0-5 0.7-5.5 3.5l2.3 0.3c0.2-0.5 0.5-1.8 2.9-1.8 1.2 0 2.6 0.3 2.6 1.8v0.9c-2.7 0-8.2 0.1-8.2 4.2 0 2 1.4 3.8 4 3.8 3 0 3.8-1.9 4.2-2.8 0 1 0.1 1.5 0.4 2.5h2.6c-0.1-0.4-0.4-1.3-0.4-2.5zm-2.6 2.9c0 1-0.5 3.3-3.2 3.3-2 0-2.2-1.4-2.2-1.9 0-1.5 1.5-1.9 2-2.1 0.6-0.2 1.6-0.4 3.4-0.4zm13.2 0.6c-0.4 1.4-1.1 2.3-2.4 2.3-2.5 0-2.5-3.3-2.5-3.8 0-0.6 0.1-1.5 0.3-2.3 0.3-0.7 0.8-1.9 2.3-1.9 1.2 0 2 0.7 2.3 2.3l2.3-0.3c-0.1-1-0.7-4.2-4.7-4.2-3.6 0-5.4 2.9-5.4 6.3 0 2.7 1.3 6.3 5.2 6.3 3.9 0 4.7-3.3 4.9-4.4zm4.8 4.4h2.7v-5.8c0-1.4 0.1-2.2 0.5-3.1 0.4-0.8 1.3-1.4 2.3-1.4 1.8 0 1.8 1.9 1.8 2.9v7.4h2.7v-7.8c0-3.4-1.1-4.8-3.7-4.8-2.5 0-3.3 1.9-3.6 2.6v-6.4h-2.7zm19.2-2.2c-0.3 0.1-0.4 0.1-0.7 0.1-1.4 0-2-0.3-2-2v-5.9h2.5v-2.2h-2.5v-3.3l-2.2 0.2-0.3 3.1h-1.6v2.2h1.5v6.3c0 1.3 0.1 2.1 0.8 3 0.6 0.6 1.7 0.9 2.6 0.9 0.5 0 1.3-0.1 1.9-0.2zm15.8 2.1v-13.9h4.4v-2.5h-11.9v2.5h4.4v13.9zm6.2 0h2.8v-5.8c0-1.4 0.1-2.2 0.5-3.1 0.3-0.8 1.3-1.4 2.2-1.4 1.9 0 1.9 1.9 1.9 2.9v7.4h2.7v-7.8c0-3.4-1.1-4.8-3.8-4.8-2.4 0-3.2 1.9-3.5 2.6v-6.4h-2.8zm23.6-12.2h-2.7v5.9c0 1.1-0.1 1.8-0.4 2.5-0.4 1-1.5 1.7-2.3 1.7-1.3 0-1.8-1.1-1.8-2.4v-7.7h-2.8v8.5c0 1.1 0.2 1.7 0.7 2.4 0.6 1.1 1.8 1.5 2.9 1.5 1.3 0 2.2-0.5 2.6-0.9 0.8-0.6 1-1.3 1.3-1.9v2.6h2.5zm13.6 4.2c0-1.5 0-2.5-1.2-3.6-0.9-0.7-2.4-0.9-3.7-0.9-2.5 0-5.1 0.8-5.5 3.5l2.3 0.3c0.1-0.5 0.4-1.8 2.8-1.8 1.3 0 2.6 0.3 2.6 1.8v1c-2.6-0.1-8.1 0-8.1 4.1 0 2 1.4 3.8 4 3.8 2.9 0 3.8-1.9 4.1-2.7 0.1 0.9 0.1 1.4 0.5 2.4h2.6c-0.2-0.4-0.4-1.3-0.4-2.4zm-2.7 2.8c0 1-0.5 3.3-3.2 3.3-1.9 0-2.1-1.4-2.1-1.9 0-1.5 1.4-1.9 2-2.1 0.5-0.1 1.6-0.4 3.3-0.4zm9 5.1v-12.2h-2.8v12.2zm0-13.6v-2.9h-2.7v2.9zm2 10.8c0.5 1.8 2.3 3 5.2 3 1.7 0 5.3-0.6 5.3-3.9 0-1.9-1.1-3.1-3-3.5l-2.6-0.6c-1-0.2-1.8-0.5-1.8-1.3 0-0.8 0.7-1.4 2.2-1.4 1.7 0 2 1 2.2 1.4l2.4-0.5c-0.8-2.5-3.3-2.8-4.7-2.8-3.9 0-4.7 2.5-4.7 3.9 0 2.8 2.6 3.3 3.7 3.5l2.3 0.5c0.4 0.1 1.3 0.4 1.3 1.2 0 1.4-2 1.5-2.6 1.5-1.9 0-2.3-0.9-2.6-1.5zm20-1.7c-0.4 1.4-1.1 2.3-2.4 2.3-2.5 0-2.5-3.3-2.5-3.8 0-0.5 0.1-1.5 0.3-2.3 0.3-0.6 0.8-1.9 2.3-1.9 1.2 0 2 0.7 2.3 2.3l2.3-0.3c-0.1-1-0.7-4.2-4.7-4.2-3.6 0-5.4 3-5.4 6.3 0 2.8 1.3 6.3 5.2 6.3 3.9 0 4.7-3.3 4.9-4.4zm12.5 0.6c-0.3 0.6-0.8 1.9-2.7 1.9-1 0-1.8-0.3-2.3-1.1-0.7-0.9-0.7-1.9-0.7-2.7h8.4c0-3.5-1.6-6.7-5.5-6.7-3.6 0-5.7 2.8-5.7 6.4 0 3.1 1.6 6.3 5.6 6.3 2.4 0 4.5-1.1 5.4-3.8zm-5.7-3.6c0.1-0.7 0.2-1.2 0.6-1.8q0.8-1.2 2.2-1.2c0.9 0 1.6 0.4 2.1 1.1 0.5 0.7 0.6 1.3 0.6 1.9zm21.1-0.5c0-1.5 0-2.4-1.2-3.5-0.9-0.7-2.4-0.9-3.7-0.9-2.5 0-5.1 0.7-5.5 3.5l2.3 0.3c0.1-0.5 0.4-1.9 2.8-1.9 1.3 0 2.6 0.4 2.6 1.9v0.9c-2.6 0-8.1 0.1-8.1 4.2 0 2 1.4 3.7 4 3.7 2.9 0 3.8-1.8 4.1-2.7 0.1 1 0.1 1.5 0.5 2.5h2.6c-0.1-0.4-0.4-1.3-0.4-2.5zm-2.7 2.9c0 0.9-0.5 3.2-3.2 3.2-1.9 0-2.1-1.3-2.1-1.8 0-1.5 1.5-2 2-2.1 0.5-0.2 1.6-0.4 3.3-0.4zm6.2 5h2.8v-4.9c0-1.9 0.4-3.1 0.9-3.6 0.9-1 1.9-1 2.5-1v-3c-2.6-0.1-3.4 2.4-3.7 3.3v-2.9h-2.5zm15.3-2.1c-0.3 0-0.5 0-0.7 0-1.4 0-2-0.3-2-2v-5.9h2.5v-2.2h-2.5v-3.3l-2.2 0.2-0.3 3.1h-1.6v2.2h1.5v6.3c0 1.4 0.1 2.1 0.8 3 0.5 0.6 1.7 0.9 2.6 0.9 0.5 0 1.3-0.1 1.9-0.2zm20.8 2.1v-2.5h-7.7v-4.6h6.1v-2.4h-6.1v-4.5h7.6v-2.4h-10.6v16.4zm-1.9-21.5l-4.9 2.3 0.4 1.3 5.2-1.7zm7.3 21.5v-12.2h-2.7v12.2zm0-13.6v-2.9h-2.7v2.9zm3.5 13.6h2.8v-5c0-1.8 0.4-3.1 0.9-3.6 0.9-1 1.9-1 2.5-1v-2.9c-2.6-0.2-3.4 2.3-3.7 3.2v-2.9h-2.5zm16.2-3.9c-0.3 0.7-0.8 2-2.8 2-1 0-1.7-0.3-2.3-1.1-0.6-1-0.6-1.9-0.6-2.7h8.3c0.1-3.6-1.5-6.7-5.4-6.7-3.6 0-5.7 2.8-5.7 6.4 0 3 1.5 6.3 5.5 6.3 2.4 0 4.6-1.1 5.4-3.8zm-5.6-3.7c0-0.6 0.1-1.1 0.5-1.7q0.8-1.2 2.2-1.2c1 0 1.7 0.4 2.2 1 0.5 0.8 0.5 1.3 0.5 1.9zm21.2-0.4c0-1.5 0-2.5-1.3-3.6-0.8-0.7-2.4-0.8-3.7-0.8-2.5 0-5 0.7-5.5 3.4l2.4 0.4c0.1-0.6 0.4-1.9 2.8-1.9 1.2 0 2.6 0.3 2.6 1.9v0.9c-2.6-0.1-8.2 0.1-8.2 4.2 0 2 1.5 3.7 4.1 3.7 2.9 0 3.7-1.8 4.1-2.7 0.1 1 0.1 1.5 0.4 2.5h2.6c-0.1-0.5-0.3-1.4-0.3-2.5zm-2.7 2.8c0 1-0.5 3.3-3.2 3.3-1.9 0-2.1-1.4-2.1-1.8 0-1.6 1.4-2 2-2.2 0.5-0.1 1.6-0.4 3.3-0.4zm6.2 5.1h2.7v-5.7c0-4.1 2.1-4.3 2.7-4.3 0.5 0 1.9 0.1 1.9 2.9v7.1h2.7v-7.2c0-1.6 0.1-5.2-3.8-5.2-2.3 0-3.3 2.1-3.7 3.1v-2.8h-2.5zm13.6 0h2.7v-5.7c0-4.2 2.1-4.3 2.7-4.3 0.5 0 1.9 0 1.9 2.8v7.2h2.7v-7.2c0-1.6 0.1-5.2-3.9-5.2-2.2 0-3.2 2-3.6 3v-2.8h-2.5z"/><path class="b" d="m640.9 96.8h390.9"/><path class="c" d="m0.2 140.6c9.6 16.7 21.7 28.8 38.5 38.5 16.6 9.6 34.6 14.1 52.5 14.1 24.9 0 49.3-8.9 68.5-25.3q1.7-1.4 3.3-2.9c7.5-6.9 14.1-15.1 19.4-24.4l-54.3-31.4-4.1-2.4-30.5-17.6-2.2-1.3-2 1.2-66.3 38.3-3.8 2.2z"/><path class="a" d="m89.2 84.4l0.1-0.1v-64.6-4.2h4.2c11.1 0 22 1.7 32.5 4.9v-19.9c-19.4 0-35.9 4.4-52.7 14.1-39.1 22.5-58.2 66.4-51.2 108.5z"/><path class="d" d="m130.1 26.2q-2.1-0.7-4.1-1.4c-10.3-3.3-21.2-5.1-32.5-5.1v64.7l32.5 18.8 4.1 2.4 54.4 31.4 3.6 2-2.1 3.6c-5.2 9.1-11.8 17.4-19.3 24.6l17.9 10.3c9.7-16.7 14.1-33.2 14.1-52.6 0-45.2-28.5-83.8-68.6-98.7z"/><path fill-rule="evenodd" class="a" d="m302.2 148.1h-16.4l-39-63.6c-1-1.6-4.6-9.2-5.5-11v74.6h-14.4v-99.5h19.9l34.9 58.6c0.3 0.8 2.7 5.1 6.1 11.7v-70.3h14.4zm17.3 0v-99.6h17.9v99.6zm42.4-27.8c0.9 3.6 2.7 10 11.6 12.8 5 1.7 9.1 2 12.4 2 16.6 0 19.9-8.7 19.9-13.2 0-9.4-7.8-11.8-12.3-13l-22.2-5.6c-14.5-3.8-21.5-13.9-21.5-26.6 0-18.8 15.2-29.7 35.2-29.7 9.9 0 19.6 2.5 27.3 8.7 6 4.7 7.5 9.5 8.4 12.8l-17 4.3c-1.2-3.4-4.2-11.3-18.4-11.3-13.7 0-17.1 7.3-17.1 12.4 0 7.7 8.8 10.6 13.8 11.9l16.9 4.2c8.5 2.2 25.8 7 25.8 28.4 0 19.7-16.8 31.1-39.5 31.1-12 0-22.4-2.8-30.6-9.4-6.7-5.3-8.5-11.5-10-16.1zm132.4 27.8l-15.6-40.9h-25.2v40.9h-17.9v-99.6h43.1c12.4 0 19.9 2.4 26 7.8 5.1 4.6 9 11.3 9 21.5 0 18.6-12.9 24.2-17.9 26.4l17.4 43.9zm-40.7-55.2h22.4c8.8 0 19.1-3 19.1-15.4 0-7.5-5-14.6-17.6-14.6h-23.9zm159.1 55.2h-19.1l-8.1-23.7h-38.2l-7.8 23.7h-15.3l33.1-99.6h21.9zm-31.9-38l-14.5-44.5-14.4 44.5z"/></svg>