<?xml version="1.0" encoding="UTF-8" standalone="no"?>
<!-- Created with Inkscape (http://www.inkscape.org/) -->

<svg
   width="392.19168mm"
   height="96.583359mm"
   viewBox="0 0 392.19168 96.583357"
   version="1.1"
   id="svg830"
   inkscape:version="1.3.2 (091e20e, 2023-11-25, custom)"
   sodipodi:docname="nisra-only-white.svg"
   xmlns:inkscape="http://www.inkscape.org/namespaces/inkscape"
   xmlns:sodipodi="http://sodipodi.sourceforge.net/DTD/sodipodi-0.dtd"
   xmlns="http://www.w3.org/2000/svg"
   xmlns:svg="http://www.w3.org/2000/svg"
   xmlns:rdf="http://www.w3.org/1999/02/22-rdf-syntax-ns#"
   xmlns:cc="http://creativecommons.org/ns#"
   xmlns:dc="http://purl.org/dc/elements/1.1/">
  <defs
     id="defs824" />
  <sodipodi:namedview
     id="base"
     pagecolor="#ffffff"
     bordercolor="#666666"
     borderopacity="1.0"
     inkscape:pageopacity="0.0"
     inkscape:pageshadow="2"
     inkscape:zoom="0.24748738"
     inkscape:cx="452.54834"
     inkscape:cy="-36.365491"
     inkscape:document-units="mm"
     inkscape:current-layer="layer1"
     showgrid="false"
     fit-margin-top="0"
     fit-margin-left="0"
     fit-margin-right="0"
     fit-margin-bottom="0"
     inkscape:window-width="1718"
     inkscape:window-height="1368"
     inkscape:window-x="3626"
     inkscape:window-y="0"
     inkscape:window-maximized="0"
     inkscape:showpageshadow="2"
     inkscape:pagecheckerboard="true"
     inkscape:deskcolor="#d1d1d1" />
  <metadata
     id="metadata827">
    <rdf:RDF>
      <cc:Work
         rdf:about="">
        <dc:format>image/svg+xml</dc:format>
        <dc:type
           rdf:resource="http://purl.org/dc/dcmitype/StillImage" />
      </cc:Work>
    </rdf:RDF>
  </metadata>
  <g
     inkscape:label="Layer 1"
     inkscape:groupmode="layer"
     id="layer1"
     transform="translate(41.775165,-133.78986)">
    <path
       style="fill:#ffffff;fill-opacity:1;stroke-width:0.264583"
       d="m -1.3425443,230.22559 c -10.1891697,-0.99024 -20.5373597,-5.25888 -28.6687697,-11.82591 -3.87767,-3.13166 -8.02319,-7.84639 -10.84369,-12.33263 -0.95743,-1.52287 -1.07794,-1.85936 -0.76832,-2.14543 0.20197,-0.18661 10.428,-6.14278 22.72451,-13.23593 19.88365971,-11.46976 22.4304697,-12.86875 23.0187497,-12.64446 0.70441,0.26856 44.7028803,25.63178 45.0548103,25.97216 0.25087,0.24263 -2.29235,4.15901 -4.48237,6.90252 -7.97397,9.98928 -20.24319,16.99731 -33.11255,18.91352 -3.4266503,0.51021 -9.7531303,0.70417 -12.9223703,0.39616 z"
       id="path839" />
    <path
       style="fill:#ffffff;fill-opacity:1;stroke-width:0.264583"
       d="m 45.994136,220.00078 -4.29559,-2.51384 2.57003,-2.89914 c 3.77738,-4.26108 8.32042,-10.89521 7.79517,-11.38317 -0.10259,-0.0953 -10.75332,-6.26949 -23.66829,-13.72042 L 4.9136857,175.93707 v -16.24495 -16.24495 h 1.46563 c 4.1492303,0 10.3348003,1.09679 15.0708303,2.67227 12.90433,4.29275 23.54518,13.30532 30.00724,25.41549 6.62872,12.42248 7.91604,27.90673 3.43825,41.35633 -1.0019,3.00935 -4.07488,9.69053 -4.43609,9.64484 -0.0934,-0.0118 -2.10284,-1.15271 -4.46541,-2.53532 z"
       id="path837" />
    <path
       style="fill:#ffffff;fill-opacity:1;stroke-width:0.264583"
       d="m 187.3439,217.62801 c -9.83829,-1.06136 -18.12186,-5.69944 -21.39028,-11.97671 -0.50025,-0.96076 -1.21377,-2.59951 -1.5856,-3.64166 l -0.67606,-1.89481 1.9041,-0.41733 c 1.04725,-0.22953 3.7426,-0.81513 5.98967,-1.30132 l 4.08558,-0.884 0.57196,1.63684 c 1.42034,4.06478 3.88117,6.15931 9.03491,7.69003 3.02719,0.89912 8.96165,1.17715 11.85531,0.55542 4.09136,-0.87906 6.69772,-2.48664 8.20698,-5.062 1.29625,-2.21188 1.34788,-5.42836 0.12561,-7.82422 -0.66602,-1.30551 -2.6759,-3.09423 -4.32526,-3.84933 -0.75736,-0.34673 -5.59437,-1.71302 -10.74891,-3.03619 -5.15454,-1.32317 -10.27074,-2.75336 -11.36932,-3.17821 -5.50829,-2.13017 -9.57152,-6.60154 -11.04801,-12.15777 -0.63882,-2.40397 -0.62766,-8.21115 0.0204,-10.58333 0.66639,-2.4395 2.03972,-5.16517 3.52949,-7.00505 5.79354,-7.15511 17.72706,-10.06779 29.33402,-7.15973 5.09392,1.27625 10.55275,4.57418 13.05323,7.88604 1.13915,1.5088 2.2991,3.83547 2.55833,5.13159 l 0.16081,0.80409 -5.39538,1.34981 c -2.96745,0.7424 -5.5858,1.42288 -5.81853,1.51219 -0.31895,0.12239 -0.58932,-0.20054 -1.09783,-1.31127 -1.90077,-4.15185 -6.30082,-6.49015 -12.21267,-6.49015 -7.29433,0 -11.92066,3.33987 -11.89839,8.58977 0.009,2.21507 0.59148,3.50527 2.2625,5.01494 1.9526,1.76405 4.50761,2.70701 13.33468,4.92131 4.51411,1.13238 9.10043,2.38106 10.19184,2.77485 8.81578,3.18076 13.0311,8.5809 13.42143,17.19385 0.18703,4.12696 -0.31274,6.78013 -1.89253,10.04713 -1.4161,2.9285 -3.14829,5.08094 -5.57577,6.92856 -5.09133,3.87512 -10.75093,5.59816 -18.91771,5.75941 -2.54662,0.0503 -5.10646,0.04 -5.68855,-0.0228 z"
       id="path835" />
    <path
       style="fill:#ffffff;fill-opacity:1;stroke-width:0.264583"
       d="m 81.642856,182.07633 v -34.66041 l 6.94531,0.006 6.94531,0.006 11.906254,20.01334 c 6.54844,11.00734 12.88672,21.86133 14.08507,24.11998 1.19835,2.25865 2.29968,4.2275 2.4474,4.37522 0.18171,0.18171 0.26858,-7.62113 0.26858,-24.12601 v -24.39453 h 4.89479 4.89479 v 34.66557 34.66558 l -5.72742,-0.0713 -5.72742,-0.0713 -13.47338,-21.96042 C 101.69178,182.56582 94.750376,170.95723 93.676806,168.84718 l -1.95195,-3.83646 -0.0139,25.86302 -0.0139,25.86302 h -5.02709 -5.02708 z"
       id="path833" />
    <path
       style="fill:#ffffff;fill-opacity:1;stroke-width:0.264583"
       d="m 146.20119,182.07633 v -34.66041 h 6.21771 6.21771 v 34.66041 34.66042 h -6.21771 -6.21771 z"
       id="path831" />
    <path
       style="fill:#ffffff;fill-opacity:1;stroke-width:1"
       d="M 1016.4609,51.363281 V 182.43164 313.49805 h 23.4922 23.4903 l 0.2597,-53.75 0.2578,-53.75 32.6172,-0.26367 c 25.3493,-0.20478 32.833,0.018 33.5918,1 0.5369,0.69494 9.9357,24.99514 20.8848,54 l 19.9062,52.73632 24.75,0.0156 c 13.6125,0.008 24.75,-0.1798 24.75,-0.41602 0,-0.23603 -10.125,-25.91173 -22.5,-57.05859 -12.3749,-31.14686 -22.4941,-56.94265 -22.4941,-57.32227 0,-0.37961 3.7247,-2.59004 8.2715,-4.91211 22.4052,-11.44248 35.0581,-30.01249 37.6738,-55.29492 3.8342,-37.06042 -13.4849,-67.754351 -45.1289,-79.984373 -15.7959,-6.10492 -17.7328,-6.245942 -92.0723,-6.710938 z m 47.5,37.636719 36.5,0.0078 c 35.3751,0.0077 36.7311,0.08006 44,2.333985 9.1679,2.842734 15.9369,7.022954 20.6153,12.732425 9.0487,11.04264 10.6862,28.24095 4.041,42.42578 -4.7338,10.10457 -16.1895,17.66734 -31.0762,20.51562 v 0.002 c -5.892,1.12728 -15.7843,1.48242 -41.1797,1.48242 h -33.4218 l 0.2617,-39.75 z"
       transform="matrix(0.26458333,0,0,0.26458333,-41.775165,133.78986)"
       id="path829" />
    <path
       style="fill:#ffffff;fill-opacity:1;stroke-width:1"
       d="m 1394.9609,51.496094 -28.916,0.251953 -28.916,0.251953 -43.334,129.99805 c -23.8324,71.49538 -43.3323,130.32905 -43.334,130.74804 0,0.41424 8.9824,0.75391 19.959,0.75391 h 19.9571 l 10.0878,-31.00977 10.0879,-31.00976 50.5977,0.25976 50.5996,0.25977 10.4902,30.75 10.4922,30.75 h 24.9375 c 21.2722,0 24.8912,-0.21383 24.6153,-1.45117 -0.1778,-0.79782 -19.8993,-59.74868 -43.8243,-131.00195 z m -33.6191,45.699218 c 0.081,0.01512 0.1191,0.183029 0.1191,0.486329 0,0.319445 8.3251,26.166579 18.5,57.439449 10.1751,31.27287 18.5,57.20147 18.5,57.61914 0,0.41776 -17.0774,0.75977 -37.9511,0.75977 h -37.9532 l 1.3125,-4.25 c 0.7219,-2.33752 9.0726,-28.10002 18.5567,-57.25 13.329,-40.9672 18.1324,-54.950889 18.916,-54.804688 z"
       transform="matrix(0.26458333,0,0,0.26458333,-41.775165,133.78986)"
       id="path825" />
    <path
       style="fill:#ffffff;fill-opacity:1;stroke-width:0.264583"
       d="m -31.251904,193.76128 c -0.35124,-2.45237 -0.25471,-13.16048 0.13872,-15.38911 0.96254,-5.4524 2.32939,-9.80934 4.52374,-14.4198 2.80148,-5.88605 5.85115,-10.22937 10.32131,-14.69952 9.4250397,-9.42504 22.0455397,-14.99369 34.87414,-15.38779 l 2.44753,-0.0752 -1.4e-4,4.98925 c -1.2e-4,4.64371 -0.0322,4.97679 -0.46315,4.8095 -1.11785,-0.43394 -5.98896,-1.4921 -8.53302,-1.85365 -1.52786,-0.21713 -4.2959603,-0.39696 -6.1513503,-0.39962 l -3.37344,-0.005 v 17.27525 17.27527 l -11.04636,6.37752 c -6.0754897,3.50764 -13.6286797,7.86786 -16.7848597,9.68938 l -5.7385,3.31185 z"
       id="path1397" />
  </g>
</svg>
