<?xml version="1.0" encoding="UTF-8" standalone="no"?>
<!-- Uploaded to: SVG Repo, www.svgrepo.com, Generator: SVG Repo Mixer Tools -->

<svg
   fill="#ca2c93"
   width="599.99921"
   height="800"
   viewBox="-64 0 383.99949 512"
   version="1.1"
   id="svg1"
   sodipodi:docname="child.svg"
   inkscape:version="1.3.2 (091e20e, 2023-11-25, custom)"
   xmlns:inkscape="http://www.inkscape.org/namespaces/inkscape"
   xmlns:sodipodi="http://sodipodi.sourceforge.net/DTD/sodipodi-0.dtd"
   xmlns="http://www.w3.org/2000/svg"
   xmlns:svg="http://www.w3.org/2000/svg">
  <defs
     id="defs1" />
  <sodipodi:namedview
     id="namedview1"
     pagecolor="#ffffff"
     bordercolor="#666666"
     borderopacity="1.0"
     inkscape:showpageshadow="2"
     inkscape:pageopacity="0.0"
     inkscape:pagecheckerboard="true"
     inkscape:deskcolor="#d1d1d1"
     inkscape:zoom="1.46625"
     inkscape:cx="299.74425"
     inkscape:cy="400"
     inkscape:window-width="3440"
     inkscape:window-height="1369"
     inkscape:window-x="1912"
     inkscape:window-y="-8"
     inkscape:window-maximized="1"
     inkscape:current-layer="svg1" />
  <path
     d="m 55.99975,72 c 0,-39.765 32.235,-72 72,-72 39.765,0 72,32.235 72,72 0,39.764 -32.235,72 -72,72 -39.765,0 -72,-32.236 -72,-72 z m 254.627,1.373 c -12.496,-12.497 -32.758,-12.497 -45.254,0 L 178.74475,160 h -101.491 l -86.627,-86.627 c -12.496,-12.497 -32.758,-12.497 -45.254,0 -12.497,12.497 -12.497,32.758 0,45.255 l 94.627,94.626 V 480 c 0,17.673 14.327,32 32,32 h 16 c 17.673,0 32,-14.327 32,-32 V 368 h 16 v 112 c 0,17.673 14.327,32 32,32 h 16 c 17.673,0 32,-14.327 32,-32 V 213.254 l 94.627,-94.627 c 12.497,-12.497 12.497,-32.757 0,-45.254 z"
     id="path1"
     style="stroke:none;fill:#ca2c93;fill-opacity:1" />
</svg>
