<svg xmlns="http://www.w3.org/2000/svg" version="1.1" xmlns:xlink="http://www.w3.org/1999/xlink" xmlns:svgjs="http://svgjs.dev/svgjs" width="500" height="500"><svg xmlns="http://www.w3.org/2000/svg" xmlns:xlink="http://www.w3.org/1999/xlink" width="500" zoomAndPan="magnify" viewBox="0 0 375 374.999991" height="500" preserveAspectRatio="xMidYMid meet" version="1.0"><path fill="#3e7cbf" d="M 0.375 269.34375 C 18.417969 300.71875 41.15625 323.453125 72.730469 341.679688 C 103.925781 359.714844 137.757812 368.171875 171.394531 368.171875 C 218.191406 368.171875 264.046875 351.449219 300.132812 320.636719 C 302.261719 318.882812 304.328125 317.066406 306.332031 315.1875 C 320.429688 302.222656 332.832031 286.816406 342.792969 269.34375 L 240.742188 210.347656 L 233.039062 205.835938 L 175.71875 172.769531 L 171.585938 170.324219 L 167.824219 172.582031 L 43.226562 244.542969 L 36.082031 248.675781 Z M 0.375 269.34375 " fill-opacity="1" fill-rule="nonzero"></path><path fill="#152b53" d="M 167.636719 163.75 L 167.824219 163.5625 L 167.824219 34.296875 L 175.71875 34.296875 C 196.578125 34.296875 217.0625 37.492188 236.796875 43.503906 L 236.796875 6.113281 C 200.339844 6.113281 169.328125 14.378906 137.757812 32.605469 C 64.273438 74.878906 28.378906 157.363281 41.535156 236.460938 Z M 167.636719 163.75 " fill-opacity="1" fill-rule="nonzero"></path><path fill="#c0d732" d="M 244.503906 54.398438 C 241.871094 53.523438 239.304688 52.648438 236.796875 51.769531 C 217.441406 45.570312 196.957031 42.1875 175.71875 42.1875 L 175.71875 163.75 L 236.796875 199.074219 L 244.503906 203.582031 L 346.738281 262.578125 L 353.503906 266.335938 L 349.558594 273.101562 C 339.785156 290.199219 327.382812 305.792969 313.285156 319.320312 L 346.925781 338.671875 C 365.15625 307.296875 373.425781 276.292969 373.425781 239.84375 C 373.425781 154.917969 319.863281 82.394531 244.503906 54.398438 Z M 244.503906 54.398438 " fill-opacity="1" fill-rule="nonzero"></path></svg><style>@media (prefers-color-scheme: light) { :root { filter: none; } }
@media (prefers-color-scheme: dark) { :root { filter: none; } }
</style></svg>